<svg version="1.2" xmlns="http://www.w3.org/2000/svg" viewBox="0 0 271 229" width="271" height="229">
	<style>
		.s0 { fill: #0215c8 } 
		.s1 { fill: #0316c9 } 
		.s2 { fill: #0317c9 } 
	</style>
	<path class="s0" d="m117.84 112.67c-10.96-10.86-21.82-21.56-32.6-32.34-18.3-18.31-19.13-47.69-1.93-65.85 20.18-21.3 56.92-17.17 71.1 7.8q0.19 0.31 0.39 0.61c0.18-0.07 0.4-0.08 0.46-0.18 9.39-16.17 23.74-22.87 42.01-21.75 18.7 1.16 35.02 14.86 39.27 33.06 4.13 17.71-0.45 33.17-13.18 46.03-18.29 18.47-36.79 36.72-55.22 55.06-8.85 8.82-19.05 8.75-27.87-0.1-7.4-7.44-14.87-14.82-22.43-22.34z"/>
	<path class="s1" d="m88.51 168.94c-12.01-1.16-20.97-7.22-25.99-17.99-3.15-6.79-4.89-14.27-7-21.51-6.14-21.14-12.17-42.3-18.16-63.48-0.66-2.35-1.76-3.12-4.2-3.07-7.58 0.16-15.16 0.06-22.74 0.05-5.87-0.01-9.91-3.64-9.94-8.9-0.02-5.27 3.96-9.07 9.76-9.11 9-0.07 18-0.02 26.99-0.02 8.9 0 13.77 3.57 16.23 12.09 4.55 15.8 9.04 31.63 13.56 47.44 3.33 11.67 6.63 23.34 9.98 34.99 2.49 8.63 7.63 12.48 16.6 12.48q62.47 0.01 124.95 0.01c7.72 0 13.45-4.18 15.5-11.61 6.21-22.58 12.32-45.19 18.51-67.78 2.03-7.45 9.77-10.12 15.01-5.16 3.17 3 3.13 6.76 2.06 10.66-6.08 22.19-12.02 44.43-18.26 66.57-3.45 12.23-11.5 20.17-23.81 23.61-1.36 0.38-2.77 0.53-4.52 0.62-1.02-0.22-1.68-0.32-2.34-0.32q-64.91-0.02-129.82 0.01c-0.79 0-1.58 0.28-2.37 0.42z"/>
	<path class="s2" d="m227.94 198.65c3.19 15.56-8.94 29.95-24.64 29.8-13.96-0.13-25.1-12.01-24.4-26.05 0.69-13.73 12.93-24.28 26.72-23.03 11.03 1 18.98 7.81 22.32 19.28zm-20.06 12.07c4.39-3.27 5.21-8.24 1.98-12.09-3.04-3.65-8.48-3.92-11.95-0.61-2.81 2.66-3.28 6.93-1.14 10.25 2.26 3.49 6.37 4.5 11.11 2.45z"/>
	<path class="s2" d="m82.37 202.26c0.91-12.81 11.34-22.7 24.08-23.06 12.23-0.35 23.62 9.19 25.05 20.97 1.59 13.06-6.54 24.95-19.06 27.68-16.29 3.55-31.18-9.29-30.07-25.59zm27.85-5.84c-5.07-1.68-9.66 0.4-11.04 5.02-1.35 4.51 1.49 9.27 6.16 10.34 3.68 0.84 7.65-1.27 9.15-4.86 1.66-3.95 0.21-7.81-4.27-10.5z"/>
	<path class="s0" d="m88.74 169c0.56-0.2 1.35-0.48 2.14-0.48q64.91-0.03 129.82-0.01c0.66 0 1.32 0.1 2.13 0.29-1.25 0.24-2.66 0.42-4.07 0.42q-63.03 0.02-126.06 0.01c-1.24 0-2.49-0.11-3.96-0.23z"/>
</svg>