<svg width="753" height="735" viewBox="0 0 753 735" fill="none" xmlns="http://www.w3.org/2000/svg">
<g clip-path="url(#clip0_3_27)">
<mask id="mask0_3_27" style="mask-type:luminance" maskUnits="userSpaceOnUse" x="0" y="0" width="753" height="735">
<path d="M753 0H0V735H753V0Z" fill="white"/>
</mask>
<g mask="url(#mask0_3_27)">
<path d="M613 0H140C62.6801 0 0 62.6801 0 140V595C0 672.32 62.6801 735 140 735H613C690.32 735 753 672.32 753 595V140C753 62.6801 690.32 0 613 0Z" fill="#1D1D22"/>
<path d="M341.703 363.848C319.799 342.13 298.064 320.744 276.511 299.176C239.921 262.561 238.249 203.797 272.653 167.482C313.011 124.881 386.501 133.13 414.86 183.071C415.098 183.489 415.374 183.887 415.631 184.294C415.988 184.161 416.432 184.139 416.553 183.929C435.337 151.6 464.036 138.191 500.58 140.447C537.976 142.756 570.608 170.158 579.106 206.562C587.372 241.975 578.211 272.905 552.752 298.612C516.17 335.55 479.163 372.066 442.323 408.747C424.616 426.377 404.204 426.236 386.581 408.541C371.766 393.666 356.834 378.907 341.703 363.848Z" fill="#FAFAFB"/>
<path d="M561.914 535.823C568.298 566.935 544.032 595.723 512.64 595.423C484.718 595.156 462.44 571.4 463.84 543.316C465.208 515.858 489.693 494.75 517.265 497.258C539.335 499.266 555.234 512.873 561.914 535.823ZM521.784 559.959C530.575 553.421 532.211 543.472 525.762 535.77C519.664 528.486 508.8 527.932 501.844 534.549C496.234 539.885 495.291 548.421 499.578 555.055C504.086 562.03 512.309 564.051 521.784 559.959Z" fill="#FAFAFA"/>
<path d="M270.774 543.033C272.602 517.423 293.457 497.631 318.943 496.912C343.397 496.222 366.167 515.289 369.033 538.856C372.208 564.97 355.957 588.757 330.92 594.215C298.339 601.316 268.547 575.633 270.774 543.033ZM326.472 531.356C316.334 527.99 307.159 532.164 304.388 541.403C301.686 550.41 307.368 559.933 316.718 562.07C324.064 563.75 332.005 559.536 335.017 552.361C338.337 544.454 335.427 536.736 326.472 531.356Z" fill="#FAFAFA"/>
<path fill-rule="evenodd" clip-rule="evenodd" d="M126.521 228.378C144.513 228.244 162.508 228.339 180.501 228.337C198.295 228.334 208.032 235.474 212.947 252.519C222.06 284.126 231.038 315.772 240.067 347.403C246.725 370.728 253.33 394.068 260.042 417.378C265.013 434.641 275.299 442.34 293.226 442.342C376.529 442.355 459.833 442.352 543.136 442.352C558.569 442.352 570.04 433.988 574.125 419.145C586.556 373.98 598.782 328.758 611.145 283.574C615.219 268.682 630.698 263.341 641.181 273.262C647.522 279.264 647.424 286.772 645.286 294.581C633.134 338.966 621.255 383.428 608.773 427.72C601.883 452.168 585.78 468.053 561.15 474.934C558.441 475.691 555.605 475.989 552.105 476.177C551.064 475.955 550.211 475.792 549.451 475.685C550.147 475.786 550.881 475.934 551.694 476.125C549.191 476.593 546.376 476.964 543.561 476.964C459.519 476.994 375.477 476.991 291.435 476.972C288.943 476.972 286.452 476.758 283.506 476.525C284.42 476.188 285.634 475.759 286.905 475.609L287.198 475.58C285.816 475.69 284.433 476.147 283.051 476.406C259.032 474.071 241.109 461.956 231.082 440.414C224.764 426.839 221.288 411.887 217.078 397.395C204.797 355.123 192.73 312.789 180.755 270.429C179.432 265.748 177.233 264.195 172.345 264.3C157.191 264.627 142.026 264.422 126.865 264.395C115.136 264.375 107.052 257.109 107 246.593C106.949 236.066 114.918 228.464 126.521 228.378Z" fill="#FAFAFB"/>
</g>
</g>
<defs>
<clipPath id="clip0_3_27">
<rect width="753" height="735" fill="white"/>
</clipPath>
</defs>
</svg>
